<svg xmlns="http://www.w3.org/2000/svg" xml:space="preserve" style="enable-background:new 0 0 103 23" viewBox="0 0 103 23"><path d="m5.1 13.2-1 1.9v6.3H.9V.8h3.2v8.9L8.3.8h3.2L7.1 10l4.5 11.4H8.3l-3.2-8.2zm11 3.4c0 .7.2 1.3.5 1.6.3.3.7.5 1.2.5s.9-.2 1.2-.5c.3-.3.5-.8.5-1.6V5.5c0-.7-.2-1.3-.5-1.6-.3-.3-.7-.5-1.2-.5s-.9.2-1.2.5c-.3.3-.5.8-.5 1.6v11.1zM12.9 5.8c0-1.7.4-2.9 1.3-3.8.8-.9 2-1.3 3.6-1.3s2.8.4 3.6 1.3c.8.9 1.3 2.2 1.3 3.8v10.7c0 1.7-.4 2.9-1.3 3.8-.8.9-2 1.3-3.6 1.3s-2.8-.4-3.6-1.3c-.8-.9-1.3-2.2-1.3-3.8V5.8zm15.1.7v14.8h-2.9V.8h4l3.3 12.3V.8h2.9v20.5H32L28 6.5zm9.5-.7c0-1.7.4-2.9 1.2-3.8.8-.9 2-1.3 3.6-1.3s2.7.3 3.5 1.2c.8.9 1.2 2.2 1.2 3.9v.6h-3v-.9c0-.7-.1-1.3-.4-1.6-.3-.3-.7-.5-1.2-.5s-1 .3-1.3.6c-.3.3-.4.8-.4 1.6 0 .7.2 1.3.5 1.9.3.5.7 1 1.2 1.5s1 1 1.5 1.4c.5.5 1 1 1.5 1.6.5.6.9 1.2 1.2 1.9.3.7.5 1.6.5 2.5 0 1.7-.4 2.9-1.2 3.8-.8.9-2 1.3-3.6 1.3s-2.8-.4-3.6-1.3c-.8-.9-1.2-2.2-1.2-3.8v-1.3h3v1.5c0 .7.2 1.3.5 1.6.3.3.7.4 1.2.4s.9-.1 1.2-.4c.3-.3.5-.8.5-1.6 0-.7-.2-1.3-.5-1.9-.3-.5-.7-1-1.2-1.5s-1-1-1.5-1.4c-.5-.5-1-1-1.5-1.6-.5-.5-.9-1.2-1.2-1.9-.3-.7-.5-1.6-.5-2.5zm10.8-5h10v2.9h-3.4v17.6h-3.2V3.8h-3.4v-3zm18.4 20.5c0-.1-.1-.3-.1-.4 0-.1-.1-.3-.1-.4 0-.2 0-.4-.1-.7v-4.2c0-1-.2-1.6-.5-2-.3-.4-.9-.6-1.6-.6h-1.1v8.3H60V.8h4.9c1.7 0 2.9.4 3.6 1.2.8.8 1.1 2 1.1 3.5v1.6c0 2.1-.7 3.5-2.1 4.2.8.3 1.4.9 1.7 1.6.3.8.5 1.7.5 2.7v3.2c0 .5 0 1 .1 1.3 0 .4.1.8.3 1.2h-3.4zM63.2 3.8v6.3h1.3c.6 0 1.1-.2 1.4-.5.3-.3.5-.9.5-1.7v-2c0-.7-.1-1.3-.4-1.6-.3-.3-.7-.5-1.2-.5h-1.6zm11.9-3v15.8c0 .7.2 1.3.5 1.6.3.3.7.4 1.2.4s.9-.1 1.2-.4c.3-.3.5-.8.5-1.6V.8h3v15.6c0 1.7-.4 2.9-1.2 3.8-.8.9-2 1.3-3.6 1.3s-2.8-.4-3.6-1.3c-.8-.9-1.2-2.2-1.2-3.8V.8h3.2zm17.7 0h10v2.9h-3.4v17.6h-3.2V3.8h-3.4v-3z" style="fill-rule:evenodd;clip-rule:evenodd;fill:#fff"/></svg>